<svg width="1077" height="441" viewBox="0 0 1077 441" fill="none" xmlns="http://www.w3.org/2000/svg">
<path fill-rule="evenodd" clip-rule="evenodd" d="M30 72H9V330H0V357H39V330H30V72Z" fill="#222525"/>
<rect width="9" height="258" transform="matrix(-1 0 0 1 9 72)" fill="#222525"/>
<rect width="1077" height="12" transform="matrix(-1 0 0 1 1077 357)" fill="#222525"/>
<rect width="981" height="18" transform="matrix(-1 0 0 1 1029 369)" fill="#222525"/>
<rect width="9" height="258" transform="matrix(-1 0 0 1 39 72)" fill="#222525"/>
<path fill-rule="evenodd" clip-rule="evenodd" d="M1068 72H1047V330H1038V357H1077V330H1068V72Z" fill="#222525"/>
<rect width="9" height="258" transform="matrix(-1 0 0 1 1047 72)" fill="#222525"/>
<rect width="9" height="258" transform="matrix(-1 0 0 1 1077 72)" fill="#222525"/>
<rect width="981" height="9" transform="matrix(-1 0 0 1 1029 72)" fill="#C9D1D5"/>
<rect width="999" height="12" transform="matrix(-1 0 0 1 1038 87)" fill="#C9D1D5"/>
<rect width="9" height="18" transform="matrix(-1 0 0 1 48 72)" fill="#C9D1D5"/>
<rect width="9" height="18" transform="matrix(-1 0 0 1 1038 72)" fill="#C9D1D5"/>
<rect x="39" y="30" width="9" height="42" fill="#8498A2"/>
<rect x="48" y="21" width="9" height="9" fill="#8498A2"/>
<rect x="57" y="12" width="21" height="9" fill="#8498A2"/>
<rect width="9" height="42" transform="matrix(-1 0 0 1 1038 30)" fill="#8498A2"/>
<rect width="9" height="9" transform="matrix(-1 0 0 1 1029 21)" fill="#8498A2"/>
<rect width="21" height="9" transform="matrix(-1 0 0 1 1020 12)" fill="#8498A2"/>
<rect x="78" width="921" height="12" fill="#8498A2"/>
<rect x="48" y="60" width="981" height="12" fill="#8498A2"/>
<rect x="78" y="12" width="921" height="18" fill="#96A8B0"/>
<rect width="21" height="9" transform="matrix(-1 0 0 1 1020 21)" fill="#96A8B0"/>
<rect width="21" height="9" transform="matrix(-1 0 0 1 78 21)" fill="#96A8B0"/>
<rect width="981" height="12" transform="matrix(-1 0 0 1 1029 30)" fill="#C9D1D5"/>
<rect width="981" height="9" transform="matrix(-1 0 0 1 1029 51)" fill="#C9D1D5"/>
<rect width="981" height="9" transform="matrix(-1 0 0 1 1029 42)" fill="#AEBDC6"/>
<rect width="9" height="42" transform="matrix(1 0 0 -1 39 411)" fill="#8498A2"/>
<rect width="9" height="9" transform="matrix(1 0 0 -1 48 420)" fill="#8498A2"/>
<rect width="21" height="9" transform="matrix(1 0 0 -1 57 429)" fill="#8498A2"/>
<rect x="1038" y="411" width="9" height="42" transform="rotate(-180 1038 411)" fill="#8498A2"/>
<rect x="1029" y="420" width="9" height="9" transform="rotate(-180 1029 420)" fill="#8498A2"/>
<rect x="1020" y="429" width="21" height="9" transform="rotate(-180 1020 429)" fill="#8498A2"/>
<rect width="921" height="12" transform="matrix(1 0 0 -1 78 441)" fill="#8498A2"/>
<rect width="981" height="12" transform="matrix(1 0 0 -1 48 381)" fill="#8498A2"/>
<rect width="921" height="18" transform="matrix(1 0 0 -1 78 429)" fill="#96A8B0"/>
<rect x="1020" y="420" width="21" height="9" transform="rotate(-180 1020 420)" fill="#96A8B0"/>
<rect x="78" y="420" width="21" height="9" transform="rotate(-180 78 420)" fill="#96A8B0"/>
<rect x="1029" y="411" width="981" height="12" transform="rotate(-180 1029 411)" fill="#C9D1D5"/>
<rect x="1029" y="390" width="981" height="9" transform="rotate(-180 1029 390)" fill="#C9D1D5"/>
<rect x="1029" y="399" width="981" height="9" transform="rotate(-180 1029 399)" fill="#AEBDC6"/>
<rect width="981" height="9" transform="matrix(-1 0 0 1 1029 81)" fill="#AEBDC6"/>
<rect width="999" height="12" transform="matrix(-1 0 0 1 1038 99)" fill="#AEBDC6"/>
<rect width="999" height="9" transform="matrix(-1 0 0 1 1038 111)" fill="#C9D1D5"/>
<rect width="999" height="9" transform="matrix(-1 0 0 1 1038 120)" fill="#AEBDC6"/>
<rect width="999" height="9" transform="matrix(-1 0 0 1 1038 129)" fill="#C9D1D5"/>
<rect width="999" height="12" transform="matrix(-1 0 0 1 1038 138)" fill="#AEBDC6"/>
<rect width="999" height="9" transform="matrix(-1 0 0 1 1038 150)" fill="#C9D1D5"/>
<rect width="999" height="12" transform="matrix(-1 0 0 1 1038 159)" fill="#AEBDC6"/>
<rect width="999" height="9" transform="matrix(-1 0 0 1 1038 171)" fill="#C9D1D5"/>
<rect width="999" height="9" transform="matrix(-1 0 0 1 1038 180)" fill="#AEBDC6"/>
<rect width="999" height="12" transform="matrix(-1 0 0 1 1038 189)" fill="#C9D1D5"/>
<rect width="999" height="9" transform="matrix(-1 0 0 1 1038 201)" fill="#AEBDC6"/>
<rect width="999" height="9" transform="matrix(-1 0 0 1 1038 210)" fill="#C9D1D5"/>
<rect width="999" height="9" transform="matrix(-1 0 0 1 1038 219)" fill="#AEBDC6"/>
<rect width="999" height="12" transform="matrix(-1 0 0 1 1038 228)" fill="#C9D1D5"/>
<path d="M1038 240H39V249H1038V240Z" fill="#AEBDC6"/>
<rect width="999" height="12" transform="matrix(-1 0 0 1 1038 249)" fill="#C9D1D5"/>
<path d="M1038 261H39V270H1038V261Z" fill="#AEBDC6"/>
<rect width="999" height="9" transform="matrix(-1 0 0 1 1038 270)" fill="#C9D1D5"/>
<path d="M1038 288H39V279H1038V288Z" fill="#AEBDC6"/>
<rect width="999" height="9" transform="matrix(-1 0 0 1 1038 288)" fill="#C9D1D5"/>
<path d="M1038 306H39V297H1038V306Z" fill="#AEBDC6"/>
<rect width="999" height="9" transform="matrix(-1 0 0 1 1038 306)" fill="#C9D1D5"/>
<path d="M1038 324H39V315H1038V324Z" fill="#AEBDC6"/>
<rect width="999" height="15" transform="matrix(-1 0 0 1 1038 324)" fill="#C9D1D5"/>
<path d="M1038 348H39V339H1038V348Z" fill="#AEBDC6"/>
<rect width="864" height="15" transform="matrix(-1 0 0 1 1038 42)" fill="#FB3B22"/>
<rect width="207" height="15" transform="matrix(-1 0 0 1 342 12)" fill="#FB3B22"/>
<rect width="759" height="15" transform="matrix(-1 0 0 1 1038 72)" fill="#FB3B22"/>
<rect width="819" height="15" transform="matrix(-1 0 0 1 1038 57)" fill="#9D2110"/>
<rect width="243" height="15" transform="matrix(-1 0 0 1 378 27)" fill="#E83720"/>
<rect width="243" height="15" transform="matrix(-1 0 0 1 774 84)" fill="#E83720"/>
<rect width="243" height="15" transform="matrix(-1 0 0 1 804 99)" fill="#D32B15"/>
<rect width="243" height="15" transform="matrix(-1 0 0 1 831 114)" fill="#E83720"/>
<rect width="243" height="15" transform="matrix(-1 0 0 1 849 129)" fill="#D32B15"/>
<rect width="243" height="15" transform="matrix(-1 0 0 1 888 141)" fill="#E83720"/>
<rect width="243" height="15" transform="matrix(-1 0 0 1 918 156)" fill="#D32B15"/>
<rect width="243" height="15" transform="matrix(-1 0 0 1 945 171)" fill="#E83720"/>
<rect width="243" height="15" transform="matrix(-1 0 0 1 975 186)" fill="#D32B15"/>
<rect width="243" height="15" transform="matrix(-1 0 0 1 975 237)" fill="#D32B15"/>
<rect width="243" height="12" transform="matrix(-1 0 0 1 1002 225)" fill="#E83720"/>
<rect width="234" height="12" transform="matrix(-1 0 0 1 1020 213)" fill="#D32B15"/>
<rect width="243" height="12" transform="matrix(-1 0 0 1 1002 201)" fill="#E83720"/>
<rect x="774" y="354" width="243" height="15" transform="rotate(-180 774 354)" fill="#E83720"/>
<rect x="804" y="339" width="243" height="15" transform="rotate(-180 804 339)" fill="#D32B15"/>
<rect x="831" y="324" width="243" height="15" transform="rotate(-180 831 324)" fill="#E83720"/>
<rect x="849" y="309" width="243" height="15" transform="rotate(-180 849 309)" fill="#D32B15"/>
<rect x="888" y="297" width="243" height="15" transform="rotate(-180 888 297)" fill="#E83720"/>
<rect x="918" y="282" width="243" height="15" transform="rotate(-180 918 282)" fill="#D32B15"/>
<rect x="945" y="267" width="243" height="15" transform="rotate(-180 945 267)" fill="#E83720"/>
<rect x="1038" y="399" width="864" height="15" transform="rotate(-180 1038 399)" fill="#FB3B22"/>
<rect x="342" y="429" width="207" height="15" transform="rotate(-180 342 429)" fill="#FB3B22"/>
<rect x="1038" y="369" width="759" height="15" transform="rotate(-180 1038 369)" fill="#FB3B22"/>
<rect x="1038" y="384" width="819" height="15" transform="rotate(-180 1038 384)" fill="#9D2110"/>
<rect x="378" y="414" width="243" height="15" transform="rotate(-180 378 414)" fill="#E83720"/>
<path fill-rule="evenodd" clip-rule="evenodd" d="M244.306 183H293.268V185.227H296.977V187.451H298.459V190.418H276.204V188.195H242.08V185.227H244.306V183ZM227.242 197.837H207.955V200.063H204.987V202.29H202.761V207.481H198.311V212.673H195.343V218.611H191.634V222.317H187.925V224.543H191.634V224.544H185.698V227.511H183.472V232.704H207.953V227.511H212.405V224.546H214.632V220.093H217.6V217.126H200.536V217.125H219.824V214.901H222.049V209.707H225.017V207.481H227.243V205.255H229.468V200.062H232.436V197.837H229.468H227.243H227.243H227.242ZM90 200.063H92.2256V209.707H90V200.063ZM99.6445 209.706V261.634H101.87V209.706H101.871V212.673H101.871V261.635H121.901V261.634H124.124V209.706H153.8V212.672H163.444V209.706H163.444V197.837H92.2266V209.706H99.6445ZM118.934 209.706H118.933V212.673H118.934V209.706ZM116.707 209.706H116.707V212.672H107.064V212.673H116.707V209.706ZM104.839 209.706H104.838V212.673H104.839V209.706ZM156.026 212.672H163.444V200.063H166.412V202.29H168.638V205.255H170.862V209.705H173.088V214.899H176.053V229.736H173.088V234.186H170.862V237.154H168.638V239.382H165.671V212.675H165.67V244.572H163.442V246.8H139.705V246.801H136.737V246.799H133.77V241.606H136.737V239.382H138.961V237.156H153.799V234.188H156.026V212.672ZM176.054 239.382H178.28V237.156H180.504V232.706H205.727V240.124H200.537V244.574H197.569V240.124H197.568V246.8H179.021V246.801H176.054V239.382ZM207.956 227.511H210.182V229.737H207.956V227.511ZM268.787 197.837H244.306V200.062H268.787V197.837ZM242.079 200.063H266.561V202.289H242.079V200.063ZM264.334 202.29H239.853V205.255H236.888V207.48H261.369V205.257H264.334V202.29ZM259.143 207.481H234.662V209.705H230.951V212.672H257.657V209.707H259.143V207.481ZM249.498 237.156H291.785V239.381H230.212V237.157H227.984V232.706H249.498V234.188H276.205V232.706H296.235V234.931H294.009V237.155H285.847V237.156H249.498V237.156ZM289.559 239.382H233.178V241.608H236.144V244.573H239.11V246.8H285.847V244.573H287.331V241.608H289.559V239.382ZM281.397 190.419H300.686V228.253H298.459V230.478H279.913V228.253H281.397V190.419ZM229.468 212.673H256.175V215.641H229.468V212.673ZM252.466 215.643H227.985V217.867H226.499V220.834H250.98V217.869H252.466V215.643ZM278.431 230.479H296.235V232.705H278.431V230.479ZM173.086 244.574H176.053V246.799H173.086V244.574ZM224.276 220.835H248.757V223.802H247.271V226.767H223.532V223.799H224.276V220.835ZM225.017 226.77H245.789V229.738H225.017V226.77ZM248.016 229.738H226.502V232.705H248.016V229.738Z" fill="#FB3B22"/>
</svg>
