<svg width="3643" height="90" viewBox="0 0 3643 90" fill="none" xmlns="http://www.w3.org/2000/svg">
<rect width="10" height="1838" transform="matrix(0 -1 -1 0 1838 10)" fill="#E8E8E8"/>
<rect width="10" height="1838" transform="matrix(0 -1 -1 0 1838 90)" fill="#E8E8E8"/>
<rect width="88" height="16" transform="matrix(0 -1 -1 0 1232.2 88.8184)" fill="#D3D3D3"/>
<rect width="88" height="16" transform="matrix(0 -1 -1 0 1288.2 88.8184)" fill="#D3D3D3"/>
<rect width="88" height="16" transform="matrix(0 -1 -1 0 1344.2 88.8184)" fill="#D3D3D3"/>
<rect width="88" height="16" transform="matrix(0 -1 -1 0 1400.2 88.8184)" fill="#D3D3D3"/>
<rect width="88" height="16" transform="matrix(0 -1 -1 0 1456.2 88.8184)" fill="#D3D3D3"/>
<rect width="88" height="16" transform="matrix(0 -1 -1 0 1512.2 88.8184)" fill="#D3D3D3"/>
<rect width="88" height="16" transform="matrix(0 -1 -1 0 1568.2 88.8184)" fill="#D3D3D3"/>
<rect width="88" height="16" transform="matrix(0 -1 -1 0 1627.4 88.8184)" fill="#D3D3D3"/>
<rect width="88" height="16" transform="matrix(0 -1 -1 0 1683.4 88.8184)" fill="#D3D3D3"/>
<rect width="88" height="16" transform="matrix(0 -1 -1 0 1739.4 88.8184)" fill="#D3D3D3"/>
<rect width="88" height="16" transform="matrix(0 -1 -1 0 1795.4 88.8184)" fill="#D3D3D3"/>
<rect width="88" height="16" transform="matrix(0 -1 -1 0 837 88.8184)" fill="#D3D3D3"/>
<rect width="88" height="16" transform="matrix(0 -1 -1 0 893 88.8184)" fill="#D3D3D3"/>
<rect width="88" height="16" transform="matrix(0 -1 -1 0 949 88.8184)" fill="#D3D3D3"/>
<rect width="88" height="16" transform="matrix(0 -1 -1 0 1005 88.8184)" fill="#D3D3D3"/>
<rect width="88" height="16" transform="matrix(0 -1 -1 0 1061 88.8184)" fill="#D3D3D3"/>
<rect width="88" height="16" transform="matrix(0 -1 -1 0 1117 88.8184)" fill="#D3D3D3"/>
<rect width="88" height="16" transform="matrix(0 -1 -1 0 1173 88.8184)" fill="#D3D3D3"/>
<rect width="88" height="16" transform="matrix(0 -1 -1 0 441.799 88.8184)" fill="#D3D3D3"/>
<rect width="88" height="16" transform="matrix(0 -1 -1 0 497.799 88.8184)" fill="#D3D3D3"/>
<rect width="88" height="16" transform="matrix(0 -1 -1 0 553.799 88.8184)" fill="#D3D3D3"/>
<rect width="88" height="16" transform="matrix(0 -1 -1 0 609.799 88.8184)" fill="#D3D3D3"/>
<rect width="88" height="16" transform="matrix(0 -1 -1 0 665.799 88.8184)" fill="#D3D3D3"/>
<rect width="88" height="16" transform="matrix(0 -1 -1 0 721.799 88.8184)" fill="#D3D3D3"/>
<rect width="88" height="16" transform="matrix(0 -1 -1 0 777.799 88.8184)" fill="#D3D3D3"/>
<rect width="88" height="16" transform="matrix(0 -1 -1 0 46.5996 88.8184)" fill="#D3D3D3"/>
<rect width="88" height="16" transform="matrix(0 -1 -1 0 102.6 88.8184)" fill="#D3D3D3"/>
<rect width="88" height="16" transform="matrix(0 -1 -1 0 158.6 88.8184)" fill="#D3D3D3"/>
<rect width="88" height="16" transform="matrix(0 -1 -1 0 214.6 88.8184)" fill="#D3D3D3"/>
<rect width="88" height="16" transform="matrix(0 -1 -1 0 270.6 88.8184)" fill="#D3D3D3"/>
<rect width="88" height="16" transform="matrix(0 -1 -1 0 326.6 88.8184)" fill="#D3D3D3"/>
<rect width="88" height="16" transform="matrix(0 -1 -1 0 382.6 88.8184)" fill="#D3D3D3"/>
<rect width="10" height="1838" transform="matrix(0 -1 -1 0 3643 10)" fill="#E8E8E8"/>
<rect width="10" height="1838" transform="matrix(0 -1 -1 0 3643 90)" fill="#E8E8E8"/>
<rect width="88" height="16" transform="matrix(0 -1 -1 0 3037.2 88.8184)" fill="#D3D3D3"/>
<rect width="88" height="16" transform="matrix(0 -1 -1 0 3093.2 88.8184)" fill="#D3D3D3"/>
<rect width="88" height="16" transform="matrix(0 -1 -1 0 3149.2 88.8184)" fill="#D3D3D3"/>
<rect width="88" height="16" transform="matrix(0 -1 -1 0 3205.2 88.8184)" fill="#D3D3D3"/>
<rect width="88" height="16" transform="matrix(0 -1 -1 0 3261.2 88.8184)" fill="#D3D3D3"/>
<rect width="88" height="16" transform="matrix(0 -1 -1 0 3317.2 88.8184)" fill="#D3D3D3"/>
<rect width="88" height="16" transform="matrix(0 -1 -1 0 3373.2 88.8184)" fill="#D3D3D3"/>
<rect width="88" height="16" transform="matrix(0 -1 -1 0 3432.4 88.8184)" fill="#D3D3D3"/>
<rect width="88" height="16" transform="matrix(0 -1 -1 0 3488.4 88.8184)" fill="#D3D3D3"/>
<rect width="88" height="16" transform="matrix(0 -1 -1 0 3544.4 88.8184)" fill="#D3D3D3"/>
<rect width="88" height="16" transform="matrix(0 -1 -1 0 3600.4 88.8184)" fill="#D3D3D3"/>
<rect width="88" height="16" transform="matrix(0 -1 -1 0 2642 88.8184)" fill="#D3D3D3"/>
<rect width="88" height="16" transform="matrix(0 -1 -1 0 2698 88.8184)" fill="#D3D3D3"/>
<rect width="88" height="16" transform="matrix(0 -1 -1 0 2754 88.8184)" fill="#D3D3D3"/>
<rect width="88" height="16" transform="matrix(0 -1 -1 0 2810 88.8184)" fill="#D3D3D3"/>
<rect width="88" height="16" transform="matrix(0 -1 -1 0 2866 88.8184)" fill="#D3D3D3"/>
<rect width="88" height="16" transform="matrix(0 -1 -1 0 2922 88.8184)" fill="#D3D3D3"/>
<rect width="88" height="16" transform="matrix(0 -1 -1 0 2978 88.8184)" fill="#D3D3D3"/>
<rect width="88" height="16" transform="matrix(0 -1 -1 0 2246.8 88.8184)" fill="#D3D3D3"/>
<rect width="88" height="16" transform="matrix(0 -1 -1 0 2302.8 88.8184)" fill="#D3D3D3"/>
<rect width="88" height="16" transform="matrix(0 -1 -1 0 2358.8 88.8184)" fill="#D3D3D3"/>
<rect width="88" height="16" transform="matrix(0 -1 -1 0 2414.8 88.8184)" fill="#D3D3D3"/>
<rect width="88" height="16" transform="matrix(0 -1 -1 0 2470.8 88.8184)" fill="#D3D3D3"/>
<rect width="88" height="16" transform="matrix(0 -1 -1 0 2526.8 88.8184)" fill="#D3D3D3"/>
<rect width="88" height="16" transform="matrix(0 -1 -1 0 2582.8 88.8184)" fill="#D3D3D3"/>
<rect width="88" height="16" transform="matrix(0 -1 -1 0 1851.6 88.8184)" fill="#D3D3D3"/>
<rect width="88" height="16" transform="matrix(0 -1 -1 0 1907.6 88.8184)" fill="#D3D3D3"/>
<rect width="88" height="16" transform="matrix(0 -1 -1 0 1963.6 88.8184)" fill="#D3D3D3"/>
<rect width="88" height="16" transform="matrix(0 -1 -1 0 2019.6 88.8184)" fill="#D3D3D3"/>
<rect width="88" height="16" transform="matrix(0 -1 -1 0 2075.6 88.8184)" fill="#D3D3D3"/>
<rect width="88" height="16" transform="matrix(0 -1 -1 0 2131.6 88.8184)" fill="#D3D3D3"/>
<rect width="88" height="16" transform="matrix(0 -1 -1 0 2187.6 88.8184)" fill="#D3D3D3"/>
</svg>
