<svg width="1077" height="441" viewBox="0 0 1077 441" fill="none" xmlns="http://www.w3.org/2000/svg">
<path fillRule="evenodd" clipRule="evenodd" d="M30 72H9V330H0V357H39V330H30V72Z" fill="#222525"/>
<rect width="9" height="258" transform="matrix(-1 0 0 1 9 72)" fill="#222525"/>
<rect width="1077" height="12" transform="matrix(-1 0 0 1 1077 357)" fill="#222525"/>
<rect width="981" height="18" transform="matrix(-1 0 0 1 1029 369)" fill="#222525"/>
<rect width="9" height="258" transform="matrix(-1 0 0 1 39 72)" fill="#222525"/>
<path fillRule="evenodd" clipRule="evenodd" d="M1068 72H1047V330H1038V357H1077V330H1068V72Z" fill="#222525"/>
<rect width="9" height="258" transform="matrix(-1 0 0 1 1047 72)" fill="#222525"/>
<rect width="9" height="258" transform="matrix(-1 0 0 1 1077 72)" fill="#222525"/>
<rect width="981" height="9" transform="matrix(-1 0 0 1 1029 72)" fill="#C9D1D5"/>
<rect width="999" height="12" transform="matrix(-1 0 0 1 1038 87)" fill="#C9D1D5"/>
<rect width="9" height="18" transform="matrix(-1 0 0 1 48 72)" fill="#C9D1D5"/>
<rect width="9" height="18" transform="matrix(-1 0 0 1 1038 72)" fill="#C9D1D5"/>
<rect x="39" y="30" width="9" height="42" fill="#8498A2"/>
<rect x="48" y="21" width="9" height="9" fill="#8498A2"/>
<rect x="57" y="12" width="21" height="9" fill="#8498A2"/>
<rect width="9" height="42" transform="matrix(-1 0 0 1 1038 30)" fill="#8498A2"/>
<rect width="9" height="9" transform="matrix(-1 0 0 1 1029 21)" fill="#8498A2"/>
<rect width="21" height="9" transform="matrix(-1 0 0 1 1020 12)" fill="#8498A2"/>
<rect x="78" width="921" height="12" fill="#8498A2"/>
<rect x="48" y="60" width="981" height="12" fill="#8498A2"/>
<rect x="78" y="12" width="921" height="18" fill="#96A8B0"/>
<rect width="21" height="9" transform="matrix(-1 0 0 1 1020 21)" fill="#96A8B0"/>
<rect width="21" height="9" transform="matrix(-1 0 0 1 78 21)" fill="#96A8B0"/>
<rect width="981" height="12" transform="matrix(-1 0 0 1 1029 30)" fill="#C9D1D5"/>
<rect width="981" height="9" transform="matrix(-1 0 0 1 1029 51)" fill="#C9D1D5"/>
<rect width="981" height="9" transform="matrix(-1 0 0 1 1029 42)" fill="#AEBDC6"/>
<rect width="9" height="42" transform="matrix(1 0 0 -1 39 411)" fill="#8498A2"/>
<rect width="9" height="9" transform="matrix(1 0 0 -1 48 420)" fill="#8498A2"/>
<rect width="21" height="9" transform="matrix(1 0 0 -1 57 429)" fill="#8498A2"/>
<rect x="1038" y="411" width="9" height="42" transform="rotate(-180 1038 411)" fill="#8498A2"/>
<rect x="1029" y="420" width="9" height="9" transform="rotate(-180 1029 420)" fill="#8498A2"/>
<rect x="1020" y="429" width="21" height="9" transform="rotate(-180 1020 429)" fill="#8498A2"/>
<rect width="921" height="12" transform="matrix(1 0 0 -1 78 441)" fill="#8498A2"/>
<rect width="981" height="12" transform="matrix(1 0 0 -1 48 381)" fill="#8498A2"/>
<rect width="921" height="18" transform="matrix(1 0 0 -1 78 429)" fill="#96A8B0"/>
<rect x="1020" y="420" width="21" height="9" transform="rotate(-180 1020 420)" fill="#96A8B0"/>
<rect x="78" y="420" width="21" height="9" transform="rotate(-180 78 420)" fill="#96A8B0"/>
<rect x="1029" y="411" width="981" height="12" transform="rotate(-180 1029 411)" fill="#C9D1D5"/>
<rect x="1029" y="390" width="981" height="9" transform="rotate(-180 1029 390)" fill="#C9D1D5"/>
<rect x="1029" y="399" width="981" height="9" transform="rotate(-180 1029 399)" fill="#AEBDC6"/>
<rect width="981" height="9" transform="matrix(-1 0 0 1 1029 81)" fill="#AEBDC6"/>
<rect width="999" height="12" transform="matrix(-1 0 0 1 1038 99)" fill="#AEBDC6"/>
<rect width="999" height="9" transform="matrix(-1 0 0 1 1038 111)" fill="#C9D1D5"/>
<rect width="999" height="9" transform="matrix(-1 0 0 1 1038 120)" fill="#AEBDC6"/>
<rect width="999" height="9" transform="matrix(-1 0 0 1 1038 129)" fill="#C9D1D5"/>
<rect width="999" height="12" transform="matrix(-1 0 0 1 1038 138)" fill="#AEBDC6"/>
<rect width="999" height="9" transform="matrix(-1 0 0 1 1038 150)" fill="#C9D1D5"/>
<rect width="999" height="12" transform="matrix(-1 0 0 1 1038 159)" fill="#AEBDC6"/>
<rect width="999" height="9" transform="matrix(-1 0 0 1 1038 171)" fill="#C9D1D5"/>
<rect width="999" height="9" transform="matrix(-1 0 0 1 1038 180)" fill="#AEBDC6"/>
<rect width="999" height="12" transform="matrix(-1 0 0 1 1038 189)" fill="#C9D1D5"/>
<rect width="999" height="9" transform="matrix(-1 0 0 1 1038 201)" fill="#AEBDC6"/>
<rect width="999" height="9" transform="matrix(-1 0 0 1 1038 210)" fill="#C9D1D5"/>
<rect width="999" height="9" transform="matrix(-1 0 0 1 1038 219)" fill="#AEBDC6"/>
<rect width="999" height="12" transform="matrix(-1 0 0 1 1038 228)" fill="#C9D1D5"/>
<path d="M1038 240H39V249H1038V240Z" fill="#AEBDC6"/>
<rect width="999" height="12" transform="matrix(-1 0 0 1 1038 249)" fill="#C9D1D5"/>
<path d="M1038 261H39V270H1038V261Z" fill="#AEBDC6"/>
<rect width="999" height="9" transform="matrix(-1 0 0 1 1038 270)" fill="#C9D1D5"/>
<path d="M1038 288H39V279H1038V288Z" fill="#AEBDC6"/>
<rect width="999" height="9" transform="matrix(-1 0 0 1 1038 288)" fill="#C9D1D5"/>
<path d="M1038 306H39V297H1038V306Z" fill="#AEBDC6"/>
<rect width="999" height="9" transform="matrix(-1 0 0 1 1038 306)" fill="#C9D1D5"/>
<path d="M1038 324H39V315H1038V324Z" fill="#AEBDC6"/>
<rect width="999" height="15" transform="matrix(-1 0 0 1 1038 324)" fill="#C9D1D5"/>
<path d="M1038 348H39V339H1038V348Z" fill="#AEBDC6"/>
<rect width="864" height="15" transform="matrix(-1 0 0 1 1038 42)" fill="#FB3B22"/>
<rect width="207" height="15" transform="matrix(-1 0 0 1 342 12)" fill="#FB3B22"/>
<rect width="759" height="15" transform="matrix(-1 0 0 1 1038 72)" fill="#FB3B22"/>
<rect width="819" height="15" transform="matrix(-1 0 0 1 1038 57)" fill="#9D2110"/>
<rect width="243" height="15" transform="matrix(-1 0 0 1 378 27)" fill="#E83720"/>
<rect x="1038" y="399" width="864" height="15" transform="rotate(-180 1038 399)" fill="#FB3B22"/>
<rect x="342" y="429" width="207" height="15" transform="rotate(-180 342 429)" fill="#FB3B22"/>
<rect x="1038" y="369" width="759" height="15" transform="rotate(-180 1038 369)" fill="#FB3B22"/>
<rect x="1038" y="384" width="819" height="15" transform="rotate(-180 1038 384)" fill="#9D2110"/>
<rect x="378" y="414" width="243" height="15" transform="rotate(-180 378 414)" fill="#E83720"/>
</svg>
